# xmcd
#
# Track frame offsets:
# 150
# 25424
# 44634
# 55860
# 86075
# 107510
# 129162
# 148505
# 177605
# 196835
# 216757
# 240130
# 257880
# 273662
# 291495
#
# Disc length: 4368 seconds
#
#
# Revision: 3
# Processed by: cddbd v1.5.2PL0 Copyright (c) Steve Scherf et al.
# Submitted via: FreeRIP 2.951 
#
DISCID=e2110e0f
DTITLE=Led Zeppelin - Box Set [CD1]
DYEAR=1990
DGENRE=Rock
TTITLE0=Whole Lotta Love
TTITLE1=Heartbreaker
TTITLE2=Communication Breakdown
TTITLE3=Babe I'm Gonna Leave You
TTITLE4=What Is And What Should Never Be
TTITLE5=Thank You
TTITLE6=I Can't Quit You Baby
TTITLE7=Dazed And Confused
TTITLE8=Your Time Is Gonna Come
TTITLE9=Ramble On
TTITLE10=Travelling Riverside Blues
TTITLE11=Friends
TTITLE12=Celebration Day
TTITLE13=Hey Hey What Can I Do
TTITLE14=White Summer - Black Mountain Side
EXTD=
EXTT0=
EXTT1=
EXTT2=
EXTT3=
EXTT4=
EXTT5=
EXTT6=
EXTT7=
EXTT8=
EXTT9=
EXTT10=
EXTT11=
EXTT12=
EXTT13=
EXTT14=
PLAYORDER=
